<svg width="47" height="43" viewBox="0 0 47 43" fill="none" xmlns="http://www.w3.org/2000/svg">
<mask id="mask0_106_480" style="mask-type:alpha" maskUnits="userSpaceOnUse" x="0" y="0" width="47" height="43">
<rect width="47" height="43" fill="#D9D9D9"/>
</mask>
<g mask="url(#mask0_106_480)">
<path d="M7.41016 8.82629L23.4993 22.4558L39.5902 8.82629H7.41016Z" fill="#666699"/>
<path d="M24.2725 24.9772C24.2673 24.9824 24.2587 24.9842 24.2535 24.9876C24.1554 25.0678 24.047 25.1287 23.9333 25.1722C23.9092 25.1827 23.8851 25.1896 23.8593 25.1966C23.744 25.2332 23.6235 25.2593 23.503 25.2593H23.5012H23.4995C23.379 25.2593 23.2585 25.2332 23.1432 25.1966C23.1173 25.1879 23.0932 25.1809 23.0691 25.1722C22.9555 25.127 22.8471 25.0678 22.7489 24.9876C22.7438 24.9824 22.7352 24.9807 22.73 24.9772L5.70605 10.5554V33.1737H41.2982V10.5554L24.2725 24.9772Z" fill="#666699"/>
</g>
</svg>
