<svg width="47" height="43" viewBox="0 0 47 43" fill="none" xmlns="http://www.w3.org/2000/svg">
<mask id="mask0_106_433" style="mask-type:alpha" maskUnits="userSpaceOnUse" x="0" y="0" width="47" height="43">
<rect width="47" height="43" fill="#D9D9D9"/>
</mask>
<g mask="url(#mask0_106_433)">
<path d="M25.5006 17.0405C25.939 16.5464 26.301 16.0447 26.7532 15.6195C28.1402 14.3102 29.7807 13.651 31.6947 13.6663C32.7472 13.6755 33.7874 13.7519 34.8017 14.0456C37.1221 14.7171 38.4724 16.317 39.1155 18.5884C39.5982 20.2908 39.6868 22.0391 39.6898 23.7919C39.6959 27.4904 39.6791 31.1889 39.6868 34.8889C39.6868 35.2345 39.5905 35.3263 39.2499 35.3233C37.3466 35.308 35.4433 35.3064 33.54 35.3233C33.2055 35.3263 33.1321 35.2223 33.1337 34.9057C33.1444 31.3862 33.1474 27.8667 33.1352 24.3472C33.1321 23.4646 33.0756 22.5836 32.8297 21.7255C32.3745 20.1455 31.2456 19.3409 29.5928 19.4281C27.3367 19.5474 26.162 20.6671 25.8748 22.9644C25.8061 23.5136 25.774 24.0627 25.774 24.6148C25.7771 28.038 25.771 31.4611 25.7832 34.8843C25.7847 35.2254 25.6992 35.3263 25.3509 35.3233C23.4338 35.3064 21.5168 35.308 19.5997 35.3217C19.2927 35.3233 19.2041 35.2407 19.2041 34.9302C19.2133 28.1527 19.2133 21.3768 19.2041 14.5993C19.2041 14.2643 19.3141 14.1863 19.6303 14.1879C21.4511 14.2016 23.2704 14.2032 25.0912 14.1863C25.4257 14.1833 25.5128 14.2919 25.5052 14.61C25.4884 15.4191 25.5006 16.2298 25.5006 17.0405Z" fill="#666699"/>
<path d="M15.0744 24.7847C15.0744 28.1375 15.0683 31.4903 15.082 34.843C15.0836 35.2163 14.9904 35.3279 14.6054 35.3249C12.7037 35.3034 10.8004 35.308 8.89858 35.3218C8.59307 35.3233 8.50142 35.2484 8.50295 34.9318C8.51211 28.1436 8.51211 21.3554 8.50448 14.5673C8.50448 14.2858 8.57169 14.1864 8.86956 14.1879C10.7988 14.2002 12.7296 14.2047 14.6589 14.1849C15.0301 14.1818 15.0805 14.3256 15.079 14.6437C15.0713 18.024 15.0744 21.4044 15.0744 24.7847Z" fill="#666699"/>
<path d="M15.5995 7.46088C15.601 9.56555 13.8948 11.2802 11.7975 11.2817C9.72765 11.2817 8.00613 9.56555 8.00002 7.49453C7.99391 5.39904 9.71238 3.6737 11.8066 3.67676C13.8841 3.67829 15.5964 5.38681 15.5995 7.46088Z" fill="#666699"/>
</g>
</svg>
