<svg width="47" height="43" viewBox="0 0 47 43" fill="none" xmlns="http://www.w3.org/2000/svg">
<mask id="mask0_106_440" style="mask-type:alpha" maskUnits="userSpaceOnUse" x="0" y="0" width="47" height="43">
<rect width="47" height="43" fill="#D9D9D9"/>
</mask>
<g mask="url(#mask0_106_440)">
<path d="M37.9102 6.02558C37.7848 5.65453 37.6359 5.55457 37.4016 5.46478C36.8914 5.26824 36.0264 5.56304 36.0264 5.56304C36.0264 5.56304 5.39693 16.7131 3.64696 17.9465C3.27053 18.2125 3.14339 18.3667 3.08148 18.548C2.77867 19.4273 3.72057 19.8153 3.72057 19.8153L11.6155 22.4211C11.6155 22.4211 11.91 22.4652 12.0154 22.3974C13.8105 21.2487 30.0839 10.8424 31.0241 10.4917C31.173 10.4476 31.2818 10.4985 31.2533 10.6018C30.8769 11.9369 16.7433 24.6592 16.7433 24.6592C16.7433 24.6592 16.6898 24.727 16.6546 24.8066L16.6362 24.7948L15.9001 32.7257C15.9001 32.7257 15.5923 35.1553 17.9914 32.7257C19.6844 31.0111 21.3223 29.5777 22.1404 28.8797C24.854 30.7773 27.7768 32.8782 29.0366 33.9761C29.669 34.5284 30.1993 34.6165 30.636 34.6013C31.8322 34.5555 32.1668 33.2238 32.1668 33.2238C32.1668 33.2238 37.7479 10.4731 37.9353 7.42505C37.9537 7.12686 37.9788 6.9371 37.9805 6.7304C37.9822 6.44746 37.9554 6.16112 37.9102 6.02558Z" fill="#666699"/>
</g>
</svg>
