<svg width="197" height="38" viewBox="0 0 197 38" fill="none" xmlns="http://www.w3.org/2000/svg">
<g clip-path="url(#clip0_1_65)">
<path d="M163.874 13.2807L158.101 12.7193V5.55701H153.164V8.21929C153.164 13.7938 155.354 15.7281 158.018 16.5877H153.164V23.1667C153.164 29.6316 156.353 32.1798 162.468 32.1798C168.583 32.1798 171.777 29.6316 171.777 23.1667V22.2895C171.777 14.6447 167.637 13.6535 163.892 13.2763M166.858 23.1623V27.6535H158.101V16.614C159.072 16.8965 160.064 17.1032 161.066 17.2324L166.84 18.1096V23.1667L166.858 23.1623Z" fill="white"/>
<path d="M178.615 5.55702C178.265 5.53803 177.915 5.59309 177.587 5.71862C177.26 5.84415 176.962 6.03734 176.714 6.2856C176.466 6.53385 176.273 6.83162 176.148 7.1595C176.023 7.48738 175.968 7.83803 175.987 8.1886C175.987 8.88654 176.263 9.55589 176.756 10.0494C177.249 10.5429 177.918 10.8202 178.615 10.8202C179.312 10.8202 179.98 10.5429 180.473 10.0494C180.966 9.55589 181.243 8.88654 181.243 8.1886C181.263 7.83786 181.208 7.4869 181.083 7.15871C180.958 6.83051 180.765 6.53245 180.517 6.28405C180.269 6.03564 179.971 5.84248 179.643 5.7172C179.316 5.59191 178.965 5.53733 178.615 5.55702Z" fill="white"/>
<path d="M194.932 13.1579H190.552V8.67548H185.641C185.641 15.1404 188.83 17.6886 194.945 17.6886H197V13.1579H194.932Z" fill="white"/>
<path d="M190.578 27.6535V17.1053H185.641V23.1667C185.641 29.6316 188.83 32.1798 194.945 32.1798H197V27.6535H190.578Z" fill="white"/>
<path d="M181.081 13.1667H176.144V32.1842H181.081V13.1667Z" fill="white"/>
<path d="M93.4144 13.2807L87.6409 12.7193V5.55701H82.7041V8.21929C82.7041 13.7938 84.8943 15.7281 87.5533 16.5877H82.7041V32.1798H87.6409V16.614C88.6107 16.896 89.6007 17.1028 90.6021 17.2324L96.3756 18.1096V32.1798H101.317V22.2939C101.317 14.6491 97.1773 13.6579 93.4319 13.2807" fill="white"/>
<path d="M108.61 5.55702C108.26 5.53803 107.91 5.59309 107.583 5.71862C107.255 5.84415 106.958 6.03734 106.71 6.2856C106.462 6.53385 106.269 6.83162 106.144 7.1595C106.018 7.48738 105.963 7.83803 105.982 8.1886C105.982 8.88654 106.259 9.55589 106.752 10.0494C107.245 10.5429 107.913 10.8202 108.61 10.8202C109.308 10.8202 109.976 10.5429 110.469 10.0494C110.962 9.55589 111.239 8.88654 111.239 8.1886C111.258 7.83786 111.204 7.4869 111.079 7.15871C110.954 6.83051 110.761 6.53245 110.513 6.28405C110.265 6.03564 109.967 5.84248 109.639 5.7172C109.311 5.59191 108.961 5.53733 108.61 5.55702" fill="white"/>
<path d="M139.909 13.1579H130.601V15.5132C130.601 21.9781 133.794 24.5263 139.909 24.5263H149.213V22.1798C149.213 15.7149 146.024 13.1667 139.909 13.1667M135.529 20.3904V17.3202H144.268V20.4386H139.887V20.3991L135.529 20.3904Z" fill="white"/>
<path d="M120.574 13.1579V8.67548H115.646C115.646 15.1404 118.835 17.6886 124.95 17.6886H127.004V13.1579H120.574Z" fill="white"/>
<path d="M120.574 27.6535V17.1053H115.646V23.1667C115.646 29.6316 118.835 32.1798 124.95 32.1798H127.004V27.6535H120.574Z" fill="white"/>
<path d="M111.076 13.1667H106.14V32.1842H111.076V13.1667Z" fill="white"/>
<path d="M72.7166 27.6535H66.7503V13.1579H61.8135V23.1579C61.8135 29.6228 65.0025 32.1711 71.1177 32.1711H77.6534V13.1579H72.7166V27.6535Z" fill="white"/>
<path d="M56.0706 27.6535V13.1579H51.1382V23.1579C51.1382 29.6228 54.3272 32.1711 60.4424 32.1711H62.4968V27.6535H56.0706Z" fill="white"/>
<path d="M135.537 27.6535V23.9298H130.601C130.601 29.6316 133.794 32.1798 139.909 32.1798H148.232V27.6535H135.529H135.537Z" fill="white"/>
<path d="M38.7324 8.33333L47.0554 0H36.8357C34.6283 0 32.5113 0.877974 30.9504 2.44078C29.3896 4.00358 28.5127 6.1232 28.5127 8.33333H18.477L26.7999 0H16.7248C14.5174 0 12.4004 0.877974 10.8395 2.44078C9.27869 4.00358 8.40181 6.1232 8.40181 8.33333H8.32296C6.11557 8.33333 3.99859 9.21131 2.43774 10.7741C0.87688 12.3369 0 14.4565 0 16.6667H8.3799V22.9518C8.38048 24.9303 8.77063 26.8894 9.52806 28.7169C10.2855 30.5444 11.3953 32.2044 12.7941 33.6021C14.1928 34.9997 15.853 36.1075 17.6798 36.8622C19.5065 37.6168 21.464 38.0035 23.4401 38H38.7368V8.33333M28.1842 22.0307C27.5908 21.4361 27.2576 20.63 27.2576 19.7895C27.2576 18.949 27.5908 18.1428 28.1842 17.5482L32.661 22.0307C32.0672 22.6248 31.2621 22.9584 30.4226 22.9584C29.5831 22.9584 28.778 22.6248 28.1842 22.0307Z" fill="white"/>
</g>
<defs>
<clipPath id="clip0_1_65">
<rect width="197" height="38" fill="white"/>
</clipPath>
</defs>
</svg>
